<?xml version="1.0" encoding="UTF-8"?>
<!DOCTYPE svg PUBLIC "-//W3C//DTD SVG 1.1//EN" "http://www.w3.org/Graphics/SVG/1.1/DTD/svg11.dtd">
<svg xmlns="http://www.w3.org/2000/svg" version="1.1" width="302px" height="94px" style="shape-rendering:geometricPrecision; text-rendering:geometricPrecision; image-rendering:optimizeQuality; fill-rule:evenodd; clip-rule:evenodd" xmlns:xlink="http://www.w3.org/1999/xlink">
<g><path style="opacity:1" fill="#fefefe" d="M -0.5,-0.5 C 100.167,-0.5 200.833,-0.5 301.5,-0.5C 301.5,30.8333 301.5,62.1667 301.5,93.5C 200.833,93.5 100.167,93.5 -0.5,93.5C -0.5,62.1667 -0.5,30.8333 -0.5,-0.5 Z"/></g>
<g><path style="opacity:1" fill="#141c2d" d="M 37.5,15.5 C 56.4038,12.8622 69.5705,20.1955 77,37.5C 80.0826,61.7105 69.5826,75.0438 45.5,77.5C 29.6169,76.3081 19.7835,67.9747 16,52.5C 13.9041,34.682 21.0708,22.3487 37.5,15.5 Z"/></g>
<g><path style="opacity:1" fill="#f7f7f8" d="M 55.5,20.5 C 55.2786,21.7348 54.6119,22.7348 53.5,23.5C 53.6236,24.1067 53.9569,24.44 54.5,24.5C 56.1765,25.1834 56.8432,26.5168 56.5,28.5C 58.9099,28.0791 60.7432,26.7458 62,24.5C 62.3742,25.4162 62.8742,26.2496 63.5,27C 65.6193,27.0976 67.286,27.9309 68.5,29.5C 66.164,30.7123 63.9973,30.379 62,28.5C 56.3727,29.0662 55.206,31.5662 58.5,36C 56.8466,38.411 57.5133,39.5777 60.5,39.5C 60.33,40.8221 60.6634,41.9887 61.5,43C 63.8462,42.2084 66.1795,42.3751 68.5,43.5C 68.6769,48.8665 68.3436,54.1998 67.5,59.5C 67.8333,60.5 68.1667,61.5 68.5,62.5C 69.5905,60.9852 70.9239,60.1519 72.5,60C 61.0863,76.104 46.753,79.4374 29.5,70C 16.285,58.2142 14.1184,44.7142 23,29.5C 23.4828,30.448 23.6495,31.448 23.5,32.5C 22.9569,32.56 22.6236,32.8933 22.5,33.5C 23.6937,34.7992 24.6937,36.1325 25.5,37.5C 27.5357,40.5345 30.2024,42.8678 33.5,44.5C 31.7438,46.1913 31.2438,48.1913 32,50.5C 32.9494,53.3553 34.6161,55.6886 37,57.5C 37.2853,62.3986 38.452,67.0653 40.5,71.5C 40.8333,71.3333 41.1667,71.1667 41.5,71C 43.1178,65.7194 45.9512,61.2194 50,57.5C 53.4223,51.0595 51.589,47.5595 44.5,47C 43.1908,44.1824 41.1908,42.0157 38.5,40.5C 33.063,42.9479 29.3964,41.4479 27.5,36C 28.0629,31.8456 29.7296,31.0123 32.5,33.5C 33.0252,29.3036 35.3586,27.3036 39.5,27.5C 39.5,26.5 39.5,25.5 39.5,24.5C 42.9877,24.1009 43.1544,23.4342 40,22.5C 38.5531,22.9452 37.2197,23.6119 36,24.5C 34.9412,24.3699 34.1079,23.8699 33.5,23C 36.5393,21.2421 39.7059,19.7421 43,18.5C 45.1777,21.4685 46.3444,21.1351 46.5,17.5C 50.1547,16.925 53.1547,17.925 55.5,20.5 Z"/></g>
<g><path style="opacity:1" fill="#7b808a" d="M 55.5,20.5 C 56.0967,20.7352 56.4301,21.2352 56.5,22C 55.9444,23.0111 55.2778,23.8444 54.5,24.5C 53.9569,24.44 53.6236,24.1067 53.5,23.5C 54.6119,22.7348 55.2786,21.7348 55.5,20.5 Z"/></g>
<g><path style="opacity:1" fill="#5f6471" d="M 23.5,32.5 C 23.81,33.7383 24.31,33.7383 25,32.5C 25.4935,34.1341 25.6602,35.8008 25.5,37.5C 24.6937,36.1325 23.6937,34.7992 22.5,33.5C 22.6236,32.8933 22.9569,32.56 23.5,32.5 Z"/></g>
</svg>
